<svg width="282" height="282" viewBox="0 0 282 282" fill="none" xmlns="http://www.w3.org/2000/svg">
<rect width="282" height="282" fill="white"/>
<path d="M26.5852 31.9091V45H28.1193L35.2528 34.7216H35.3807V45H36.9659V31.9091H35.4318L28.2727 42.2131H28.1449V31.9091H26.5852ZM39.3198 42.4943C39.3709 44.1051 40.9114 45.2045 43.0016 45.2045C45.1493 45.2045 46.709 44.054 46.709 42.2642C46.709 41.0369 45.9739 40.0398 44.8681 39.9631V39.8608C45.8013 39.5732 46.5044 38.8956 46.5044 37.7898C46.5044 36.2365 45.1749 35.054 43.1039 35.054C41.0584 35.054 39.601 36.179 39.5499 37.7642H41.1351C41.1799 36.9524 42.03 36.3835 43.1806 36.3835C44.3248 36.3835 44.9703 36.9652 44.9703 37.8409C44.9703 38.6591 44.4078 39.2727 43.2061 39.2727H41.5186V40.6278H43.2061C44.4078 40.6278 45.1749 41.2862 45.1749 42.2642C45.1749 43.3828 44.1841 43.8494 42.976 43.8494C41.7935 43.8494 41.0009 43.3828 40.9306 42.4943H39.3198ZM48.8279 45H53.4558C55.4501 45 56.6518 43.875 56.6518 42.3665C56.6518 40.826 55.4821 39.995 54.4018 39.8352C55.5076 39.6051 56.2939 38.9851 56.2939 37.7898C56.2939 36.2237 54.9515 35.1818 52.8422 35.1818H48.8279V45ZM50.2598 43.6193V40.6023H53.4558C54.4913 40.6023 55.1177 41.2223 55.1177 42.2386C55.1177 43.0952 54.4913 43.6193 53.4558 43.6193H50.2598ZM50.2598 39.2983V36.5625H52.8422C54.0502 36.5625 54.7853 37.0675 54.7853 37.892C54.7853 38.7678 54.0502 39.2983 52.8422 39.2983H50.2598ZM60.4439 42.7756V35.1818H58.9354V45H60.6996L65.4041 37.4062V45H66.9126V35.1818H65.174L60.4439 42.7756ZM71.1841 35.1818H69.6756V45H71.1841V40.8068H75.8887V45H77.3972V35.1818H75.8887V39.4006H71.1841V35.1818ZM81.6607 42.7756V35.1818H80.1522V45H81.9164L86.6209 37.4062V45H88.1294V35.1818H86.3908L81.6607 42.7756ZM89.5565 36.5881H92.8036V45H94.3121V36.5881H97.5337V35.1818H89.5565V36.5881ZM103.341 45.2045C105.335 45.2045 106.793 44.2074 107.253 42.7244L105.795 42.3153C105.412 43.3381 104.523 43.8494 103.341 43.8494C101.57 43.8494 100.349 42.7053 100.279 40.6023H107.406V39.9631C107.406 36.3068 105.233 35.054 103.188 35.054C100.528 35.054 98.7642 37.1506 98.7642 40.1676C98.7642 43.1847 100.503 45.2045 103.341 45.2045ZM100.279 39.2983C100.381 37.7706 101.462 36.4091 103.188 36.4091C104.824 36.4091 105.872 37.6364 105.872 39.2983H100.279ZM111.951 43.2102H110.315L110.238 43.9261C110.053 45.6584 109.688 47.3842 109.522 48.196H110.673C110.979 47.3267 111.631 45.358 111.849 43.9006L111.951 43.2102ZM27.8892 64.7756V57.1818H26.3807V67H28.1449L32.8494 59.4062V67H34.358V57.1818H32.6193L27.8892 64.7756ZM36.5073 64.4943C36.5584 66.1051 38.0989 67.2045 40.1891 67.2045C42.3368 67.2045 43.8965 66.054 43.8965 64.2642C43.8965 63.0369 43.1614 62.0398 42.0556 61.9631V61.8608C42.9888 61.5732 43.6919 60.8956 43.6919 59.7898C43.6919 58.2365 42.3624 57.054 40.2914 57.054C38.2459 57.054 36.7885 58.179 36.7374 59.7642H38.3226C38.3674 58.9524 39.2175 58.3835 40.3681 58.3835C41.5123 58.3835 42.1578 58.9652 42.1578 59.8409C42.1578 60.6591 41.5953 61.2727 40.3936 61.2727H38.7061V62.6278H40.3936C41.5953 62.6278 42.3624 63.2862 42.3624 64.2642C42.3624 65.3828 41.3716 65.8494 40.1635 65.8494C38.981 65.8494 38.1884 65.3828 38.1181 64.4943H36.5073ZM50.0041 67.2045C52.6632 67.2045 54.4529 65.1847 54.4529 62.142C54.4529 59.0739 52.6632 57.054 50.0041 57.054C47.345 57.054 45.5552 59.0739 45.5552 62.142C45.5552 65.1847 47.345 67.2045 50.0041 67.2045ZM50.0041 65.8494C47.9842 65.8494 47.0637 64.1108 47.0637 62.142C47.0637 60.1733 47.9842 58.4091 50.0041 58.4091C52.024 58.4091 52.9444 60.1733 52.9444 62.142C52.9444 64.1108 52.024 65.8494 50.0041 65.8494ZM64.0426 53.5C63.5632 53.9027 62.8473 53.9027 61.8438 53.8963C61.5178 53.8963 61.1598 53.8963 60.7699 53.9091C57.7784 53.9858 56.2955 56.2614 56.2955 60.6335V61.6818C56.2955 65.3125 58.0597 67.2045 60.6932 67.2045C63.3203 67.2045 65.0653 65.2997 65.0653 62.2188C65.0653 59.125 63.2947 57.4886 61 57.4886C59.6513 57.4886 58.392 58.0511 57.7273 59.2784H57.5994C57.804 56.7472 58.75 55.392 60.7955 55.3153C62.6108 55.2386 63.9148 55.2898 64.8097 54.4205L64.0426 53.5ZM60.6932 65.8494C58.9034 65.8494 57.804 64.4176 57.804 62.2188C57.8359 60.071 58.9162 58.8438 60.6676 58.8438C62.4638 58.8438 63.5568 60.071 63.5568 62.2188C63.5568 64.4304 62.4702 65.8494 60.6932 65.8494ZM67.3729 70.6818H68.8814V65.4915H69.0092C69.3416 66.0284 69.9808 67.2045 71.8729 67.2045C74.3274 67.2045 76.0405 65.2358 76.0405 62.1165C76.0405 59.0227 74.3274 57.054 71.8473 57.054C69.9297 57.054 69.3416 58.2301 69.0092 58.7415H68.8303V57.1818H67.3729V70.6818ZM68.8558 62.0909C68.8558 59.892 69.8274 58.4091 71.6683 58.4091C73.5859 58.4091 74.532 60.0199 74.532 62.0909C74.532 64.1875 73.5604 65.8494 71.6683 65.8494C69.853 65.8494 68.8558 64.3153 68.8558 62.0909ZM81.2308 67.2301C82.9439 67.2301 83.8388 66.3097 84.1456 65.6705H84.2223V67H85.7308V60.5312C85.7308 57.4119 83.353 57.054 82.1001 57.054C80.6172 57.054 78.9297 57.5653 78.1626 59.3551L79.5945 59.8665C79.9268 59.1506 80.7131 58.3835 82.1513 58.3835C83.5384 58.3835 84.2223 59.1186 84.2223 60.3778V60.429C84.2223 61.1577 83.4808 61.0938 81.6911 61.3239C79.8693 61.5604 77.8814 61.9631 77.8814 64.2131C77.8814 66.1307 79.3643 67.2301 81.2308 67.2301ZM81.4609 65.875C80.2592 65.875 79.3899 65.3381 79.3899 64.2898C79.3899 63.1392 80.4382 62.7812 81.6143 62.6278C82.2536 62.5511 83.9666 62.3722 84.2223 62.0653V63.446C84.2223 64.6733 83.2507 65.875 81.4609 65.875ZM87.8706 67H89.6859L93.0353 62.7812H93.8024V67H95.3109V62.7812H96.0779L99.4018 67H101.217L97.2541 62.0142L101.166 57.1818H99.3762L96.1035 61.375H95.3109V57.1818H93.8024V61.375H92.9842L89.7115 57.1818H87.9217L91.8592 62.0142L87.8706 67ZM107.085 67.2045C109.079 67.2045 110.537 66.2074 110.997 64.7244L109.54 64.3153C109.156 65.3381 108.268 65.8494 107.085 65.8494C105.314 65.8494 104.094 64.7053 104.023 62.6023H111.15V61.9631C111.15 58.3068 108.977 57.054 106.932 57.054C104.273 57.054 102.508 59.1506 102.508 62.1676C102.508 65.1847 104.247 67.2045 107.085 67.2045ZM104.023 61.2983C104.126 59.7706 105.206 58.4091 106.932 58.4091C108.568 58.4091 109.616 59.6364 109.616 61.2983H104.023ZM114.954 57.1818H113.445V67H114.954V62.8068H119.658V67H121.167V57.1818H119.658V61.4006H114.954V57.1818ZM125.43 64.7756V57.1818H123.922V67H125.686L130.39 59.4062V67H131.899V57.1818H130.16L125.43 64.7756ZM138.778 67.2045C140.773 67.2045 142.23 66.2074 142.69 64.7244L141.233 64.3153C140.849 65.3381 139.961 65.8494 138.778 65.8494C137.008 65.8494 135.787 64.7053 135.717 62.6023H142.844V61.9631C142.844 58.3068 140.67 57.054 138.625 57.054C135.966 57.054 134.202 59.1506 134.202 62.1676C134.202 65.1847 135.94 67.2045 138.778 67.2045ZM135.717 61.2983C135.819 59.7706 136.899 58.4091 138.625 58.4091C140.261 58.4091 141.31 59.6364 141.31 61.2983H135.717ZM151.71 57.1818H150.201V67H151.71V62.8068H156.414V67H157.923V57.1818H156.414V61.4006H151.71V57.1818ZM164.794 67.2045C166.788 67.2045 168.246 66.2074 168.706 64.7244L167.249 64.3153C166.865 65.3381 165.977 65.8494 164.794 65.8494C163.023 65.8494 161.803 64.7053 161.732 62.6023H168.859V61.9631C168.859 58.3068 166.686 57.054 164.641 57.054C161.982 57.054 160.217 59.1506 160.217 62.1676C160.217 65.1847 161.956 67.2045 164.794 67.2045ZM161.732 61.2983C161.835 59.7706 162.915 58.4091 164.641 58.4091C166.277 58.4091 167.325 59.6364 167.325 61.2983H161.732ZM25.767 86.4943C25.8182 88.1051 27.3587 89.2045 29.4489 89.2045C31.5966 89.2045 33.1562 88.054 33.1562 86.2642C33.1562 85.0369 32.4212 84.0398 31.3153 83.9631V83.8608C32.2486 83.5732 32.9517 82.8956 32.9517 81.7898C32.9517 80.2365 31.6222 79.054 29.5511 79.054C27.5057 79.054 26.0483 80.179 25.9972 81.7642H27.5824C27.6271 80.9524 28.4773 80.3835 29.6278 80.3835C30.772 80.3835 31.4176 80.9652 31.4176 81.8409C31.4176 82.6591 30.8551 83.2727 29.6534 83.2727H27.9659V84.6278H29.6534C30.8551 84.6278 31.6222 85.2862 31.6222 86.2642C31.6222 87.3828 30.6314 87.8494 29.4233 87.8494C28.2408 87.8494 27.4482 87.3828 27.3778 86.4943H25.767ZM38.1644 89.2301C39.8775 89.2301 40.7724 88.3097 41.0792 87.6705H41.1559V89H42.6644V82.5312C42.6644 79.4119 40.2866 79.054 39.0337 79.054C37.5508 79.054 35.8633 79.5653 35.0962 81.3551L36.5281 81.8665C36.8604 81.1506 37.6467 80.3835 39.0849 80.3835C40.4719 80.3835 41.1559 81.1186 41.1559 82.3778V82.429C41.1559 83.1577 40.4144 83.0938 38.6246 83.3239C36.8029 83.5604 34.815 83.9631 34.815 86.2131C34.815 88.1307 36.2979 89.2301 38.1644 89.2301ZM38.3945 87.875C37.1928 87.875 36.3235 87.3381 36.3235 86.2898C36.3235 85.1392 37.3718 84.7812 38.5479 84.6278C39.1871 84.5511 40.9002 84.3722 41.1559 84.0653V85.446C41.1559 86.6733 40.1843 87.875 38.3945 87.875ZM51.4775 79.1818H45.4178V89H46.9263V80.5881H51.4775V79.1818ZM53.6795 92.6818H55.188V87.4915H55.3159C55.6483 88.0284 56.2875 89.2045 58.1795 89.2045C60.6341 89.2045 62.3471 87.2358 62.3471 84.1165C62.3471 81.0227 60.6341 79.054 58.1539 79.054C56.2363 79.054 55.6483 80.2301 55.3159 80.7415H55.1369V79.1818H53.6795V92.6818ZM55.1625 84.0909C55.1625 81.892 56.1341 80.4091 57.975 80.4091C59.8926 80.4091 60.8386 82.0199 60.8386 84.0909C60.8386 86.1875 59.867 87.8494 57.975 87.8494C56.1596 87.8494 55.1625 86.3153 55.1625 84.0909ZM65.2683 92.6818C66.6298 92.6818 67.5886 91.9595 68.1575 90.4318L72.3379 79.2074L70.6887 79.1818L67.9785 87.0057H67.8762L65.166 79.1818H63.5297L67.1603 89.0511L66.8791 89.8182C66.3294 91.3139 65.6518 91.4545 64.5524 91.1733L64.1689 92.5028C64.3223 92.5795 64.7569 92.6818 65.2683 92.6818ZM73.7202 89H75.5355L78.8849 84.7812H79.652V89H81.1605V84.7812H81.9276L85.2514 89H87.0668L83.1037 84.0142L87.0156 79.1818H85.2259L81.9531 83.375H81.1605V79.1818H79.652V83.375H78.8338L75.5611 79.1818H73.7713L77.7088 84.0142L73.7202 89ZM92.9347 89.2045C94.929 89.2045 96.3864 88.2074 96.8466 86.7244L95.3892 86.3153C95.0057 87.3381 94.1172 87.8494 92.9347 87.8494C91.1641 87.8494 89.9432 86.7053 89.8729 84.6023H97V83.9631C97 80.3068 94.8267 79.054 92.7812 79.054C90.1222 79.054 88.358 81.1506 88.358 84.1676C88.358 87.1847 90.0966 89.2045 92.9347 89.2045ZM89.8729 83.2983C89.9751 81.7706 91.0554 80.4091 92.7812 80.4091C94.4176 80.4091 95.4659 81.6364 95.4659 83.2983H89.8729ZM100.803 79.1818H99.2947V89H100.803V84.8068H105.508V89H107.016V79.1818H105.508V83.4006H100.803V79.1818ZM113.76 89.2045C116.419 89.2045 118.209 87.1847 118.209 84.142C118.209 81.0739 116.419 79.054 113.76 79.054C111.101 79.054 109.311 81.0739 109.311 84.142C109.311 87.1847 111.101 89.2045 113.76 89.2045ZM113.76 87.8494C111.74 87.8494 110.82 86.1108 110.82 84.142C110.82 82.1733 111.74 80.4091 113.76 80.4091C115.78 80.4091 116.7 82.1733 116.7 84.142C116.7 86.1108 115.78 87.8494 113.76 87.8494Z" fill="black"/>
</svg>
